<?xml version="1.0"?>
<svg id="Layer_1" xmlns="http://www.w3.org/2000/svg" version="1.1" viewBox="0 0 483.36 430.4">
  
  <defs>
    
  </defs>
  <path class="st0" d="M156.92,75.45c15.36-1.46,29.16,8.94,32.85,23.78,2.57,10.34-.3,23.12,2.49,31.66,4.65,14.2,23.86,12.34,30.59.76,6.94-11.96.79-27.97,9.41-40.6,13.96-20.45,44.85-18.77,56.42,3.19,6.16,11.7,2.92,24.11,13.64,35.14,12.98,13.35,26.09,8.52,39.4,16.7,24.89,15.29,20.31,52.52-7.05,62.03-12.9,4.48-21.33,2.9-31.12,15.23-7.81,9.84-6.38,16.61-9.14,27.45-6.57,25.85-40.74,33.46-57.25,12.05-10.28-13.33-4.11-30.57-12.39-42.49-7.86-11.31-23.35-7.09-24.92,6.63-3.3,28.9,3.11,62.86-1.52,92.39-4.82,30.78-55.09,32.61-58.29-8.2-1.36-17.33-2.02-56.52.15-73.12,1.36-10.37,8.99-19.85,18.14-24.54,4.45-2.28,9.61-2.93,13.88-5.64,23.87-15.14,23.72-51.76-2.39-64.29-6.24-3-12.85-3.07-19.1-5.3-33.4-11.91-27.76-59.59,6.18-62.81ZM254.46,142.51c-40.27,5.87-34.32,73.36,12.78,66.44,41.16-6.04,35.14-73.43-12.78-66.44Z"></path>
</svg>